nColumns=19
nRows=93
DataType=double
version=3
OpenSimVersion=4.1
endheader
time	ground_force_1_vx	ground_force_1_vy	ground_force_1_vz	ground_force_1_px	ground_force_1_py	ground_force_1_pz	ground_force_1_mx	ground_force_1_my	ground_force_1_mz	ground_force_2_vx	ground_force_2_vy	ground_force_2_vz	ground_force_2_px	ground_force_2_py	ground_force_2_pz	ground_force_2_mx	ground_force_2_my	ground_force_2_mz
0	-159.143	628.312	18.444	0.0579269	0.006	-0.194936	0	1.34801	0	0	0	0	0.629187	0	-0.222852	0	0	0
0.01	-167.27	662.837	11.4301	0.0617049	0.006	-0.193618	0	1.11025	0	0	0	0	0.629187	0	-0.222852	0	0	0
0.02	-175.506	699.942	3.77679	0.0662299	0.006	-0.192038	0	0.89875	0	0	0	0	0.629187	0	-0.222852	0	0	0
0.03	-183.408	738.542	-4.23905	0.0707229	0.006	-0.190472	0	0.728451	0	0	0	0	0.629187	0	-0.222852	0	0	0
0.04	-190.494	777.541	-12.2768	0.0750809	0.006	-0.188964	0	0.612612	0	0	0	0	0.629187	0	-0.222852	0	0	0
0.05	-196.302	815.87	-19.9919	0.0792239	0.006	-0.187544	0	0.558492	0	0	0	0	0.629187	0	-0.222852	0	0	0
0.06	-200.448	852.487	-27.0759	0.0831049	0.006	-0.186229	0	0.5657	0	0	0	0	0.629187	0	-0.222852	0	0	0
0.07	-202.656	886.381	-33.2734	0.0867009	0.006	-0.185024	0	0.628388	0	0	0	0	0.629187	0	-0.222852	0	0	0
0.08	-202.764	916.565	-38.3975	0.0900159	0.006	-0.183921	0	0.736554	0	0	0	0	0.629187	0	-0.222852	0	0	0
0.09	-200.728	942.111	-42.3679	0.0930709	0.006	-0.182901	0	0.875023	0	0	0	0	0.629187	0	-0.222852	0	0	0
0.1	-196.626	962.218	-45.2258	0.0959059	0.006	-0.181935	0	1.025	0	0	0	0	0.629187	0	-0.222852	0	0	0
0.11	-190.639	976.276	-47.1053	0.0985679	0.006	-0.18099	0	1.16798	0	0	0	0	0.629187	0	-0.222852	0	0	0
0.12	-183.024	983.929	-48.1907	0.101111	0.006	-0.18003	0	1.28835	0	0	0	0	0.629187	0	-0.222852	0	0	0
0.13	-174.088	985.111	-48.6715	0.103587	0.006	-0.179023	0	1.37468	0	0	0	0	0.629187	0	-0.222852	0	0	0
0.14	-164.15	980.038	-48.7069	0.106044	0.006	-0.177943	0	1.42045	0	0	0	0	0.629187	0	-0.222852	0	0	0
0.15	-153.524	969.186	-48.4095	0.108528	0.006	-0.176769	0	1.4238	0	0	0	0	0.629187	0	-0.222852	0	0	0
0.16	-142.502	953.257	-47.849	0.111078	0.006	-0.175487	0	1.38661	0	0	0	0	0.629187	0	-0.222852	0	0	0
0.17	-131.341	933.118	-47.0628	0.113723	0.006	-0.174092	0	1.31325	0	0	0	0	0.629187	0	-0.222852	0	0	0
0.18	-120.263	909.745	-46.0697	0.116488	0.006	-0.172583	0	1.20925	0	0	0	0	0.629187	0	-0.222852	0	0	0
0.19	-109.449	884.173	-44.8845	0.119383	0.006	-0.170968	0	1.0807	0	0	0	0	0.629187	0	-0.222852	0	0	0
0.2	-99.0414	857.448	-43.5287	0.122412	0.006	-0.169258	0	0.933509	0	0	0	0	0.629187	0	-0.222852	0	0	0
0.21	-89.1438	830.585	-42.0347	0.125567	0.006	-0.167473	0	0.772953	0	0	0	0	0.629187	0	-0.222852	0	0	0
0.22	-79.826	804.524	-40.4458	0.128832	0.006	-0.165639	0	0.603567	0	0	0	0	0.629187	0	-0.222852	0	0	0
0.23	-71.1247	780.098	-38.8126	0.132181	0.006	-0.163785	0	0.42891	0	0	0	0	0.629187	0	-0.222852	0	0	0
0.24	-63.0477	758	-37.1871	0.135578	0.006	-0.161948	0	0.251232	0	0	0	0	0.629187	0	-0.222852	0	0	0
0.25	-55.578	738.763	-35.6167	0.138986	0.006	-0.160164	0	0.071283	0	0	0	0	0.629187	0	-0.222852	0	0	0
0.26	-48.679	722.752	-34.1387	0.142364	0.006	-0.158472	0	-0.111454	0	0	0	0	0.629187	0	-0.222852	0	0	0
0.27	-42.2991	710.176	-32.7774	0.145676	0.006	-0.156906	0	-0.298409	0	0	0	0	0.629187	0	-0.222852	0	0	0
0.28	-36.3745	701.105	-31.5461	0.148897	0.006	-0.155494	0	-0.491521	0	0	0	0	0.629187	0	-0.222852	0	0	0
0.29	-30.833	695.507	-30.4512	0.152008	0.006	-0.154256	0	-0.692646	0	0	0	0	0.629187	0	-0.222852	0	0	0
0.3	-25.5975	693.282	-29.4993	0.155007	0.006	-0.153203	0	-0.902966	0	0	0	0	0.629187	0	-0.222852	0	0	0
0.31	-20.5904	694.289	-28.7009	0.157901	0.006	-0.152336	0	-1.12275	0	0	0	0	0.629187	0	-0.222852	0	0	0
0.32	-15.7362	698.367	-28.0737	0.160708	0.006	-0.151649	0	-1.35135	0	0	0	0	0.629187	0	-0.222852	0	0	0
0.33	-10.9636	705.348	-27.641	0.163453	0.006	-0.151126	0	-1.58727	0	0	0	0	0.629187	0	-0.222852	0	0	0
0.34	-6.20677	715.067	-27.4298	0.166167	0.006	-0.150746	0	-1.82829	0	0	0	0	0.629187	0	-0.222852	0	0	0
0.35	-1.40513	727.368	-27.4675	0.168879	0.006	-0.150486	0	-2.07161	0	0	0	0	0.629187	0	-0.222852	0	0	0
0.36	3.50064	742.104	-27.7821	0.171617	0.006	-0.150322	0	-2.31388	0	0	0	0	0.629187	0	-0.222852	0	0	0
0.37	8.57138	759.13	-28.402	0.174404	0.006	-0.150228	0	-2.55125	0	0	0	0	0.629187	0	-0.222852	0	0	0
0.38	13.8707	778.284	-29.3561	0.177254	0.006	-0.150183	0	-2.77917	0	0	0	0	0.629187	0	-0.222852	0	0	0
0.39	19.4661	799.382	-30.6674	0.180175	0.006	-0.150169	0	-2.99236	0	0	0	0	0.629187	0	-0.222852	0	0	0
0.4	25.4292	822.189	-32.344	0.183165	0.006	-0.150171	0	-3.1847	0	0	0	0	0.629187	0	-0.222852	0	0	0
0.41	31.8343	846.408	-34.3692	0.186219	0.006	-0.150181	0	-3.34954	0	0	0	0	0.629187	0	-0.222852	0	0	0
0.42	38.7538	871.659	-36.6931	0.189326	0.006	-0.150199	0	-3.48012	0	0	0	0	0.629187	0	-0.222852	0	0	0
0.43	46.2528	897.465	-39.2266	0.192472	0.006	-0.150227	0	-3.56999	0	0	0	0	0.629187	0	-0.222852	0	0	0
0.44	54.3816	923.24	-41.8407	0.195645	0.006	-0.150274	0	-3.6137	0	0	0	0	0.629187	0	-0.222852	0	0	0
0.45	63.1689	948.285	-44.3731	0.198833	0.006	-0.150351	0	-3.60774	0	0	0	0	0.629187	0	-0.222852	0	0	0
0.46	72.6145	971.808	-46.6401	0.202024	0.006	-0.150471	0	-3.55143	0	0	0	0	0.629187	0	-0.222852	0	0	0
0.47	82.6843	992.943	-48.4552	0.205209	0.006	-0.150646	0	-3.44744	0	0	0	0	0.629187	0	-0.222852	0	0	0
0.48	93.3038	1010.78	-49.6473	0.20838	0.006	-0.150888	0	-3.30203	0	0	0	0	0.629187	0	-0.222852	0	0	0
0.49	104.348	1024.4	-50.0754	0.21153	0.006	-0.151206	0	-3.12468	0	0	0	0	0.629187	0	-0.222852	0	0	0
0.5	115.629	1032.87	-49.6347	0.214653	0.006	-0.151607	0	-2.92752	0	6.47658	32.1644	-9.38757	0.662505	0.006	-0.237683	0	-0.187642	0
0.51	126.886	1035.28	-48.2573	0.217744	0.006	-0.152095	0	-2.72445	0	5.15342	54.2776	-11.0103	0.698233	0.006	-0.252923	0	-0.117622	0
0.52	137.782	1030.74	-45.9155	0.220803	0.006	-0.152669	0	-2.52971	0	2.75484	81.574	-12.6328	0.717591	0.006	-0.260551	0	-0.087611	0
0.53	147.909	1018.41	-42.628	0.223831	0.006	-0.153326	0	-2.35612	0	-0.998782	114.207	-14.1324	0.730216	0.006	-0.265058	0	-0.063942	0
0.54	156.812	997.578	-38.4679	0.226836	0.006	-0.154059	0	-2.21317	0	-6.39844	152	-15.3445	0.739523	0.006	-0.268017	0	-0.031386	0
0.55	164.018	967.709	-33.5653	0.229826	0.006	-0.154859	0	-2.10558	0	-13.6457	194.409	-16.0661	0.747037	0.006	-0.270127	0	0.021438	0
0.56	169.067	928.54	-28.1042	0.232814	0.006	-0.155712	0	-2.03269	0	-22.6486	240.683	-16.0794	0.753529	0.006	-0.271754	0	0.105045	0
0.57	171.548	880.167	-22.3134	0.235816	0.006	-0.156605	0	-1.98882	0	-32.9872	290.1	-15.188	0.7594	0.006	-0.273098	0	0.224951	0
0.58	171.138	823.115	-16.4526	0.23885	0.006	-0.157524	0	-1.96444	0	-44.1052	341.961	-13.2609	0.764856	0.006	-0.274266	0	0.378135	0
0.59	167.635	758.374	-10.792	0.241938	0.006	-0.158454	0	-1.94773	0	-55.4875	395.517	-10.2716	0.770005	0.006	-0.275307	0	0.553438	0
0.6	161.006	687.386	-5.58883	0.245108	0.006	-0.159381	0	-1.9264	0	-66.7149	449.982	-6.31116	0.774907	0.006	-0.27624	0	0.734579	0
0.61	151.411	611.991	-1.06167	0.248394	0.006	-0.160294	0	-1.88977	0	-77.4129	504.614	-1.57569	0.779586	0.006	-0.277066	0	0.904254	0
0.62	139.22	534.322	2.63121	0.251839	0.006	-0.161185	0	-1.83035	0	-87.2205	558.737	3.6745	0.784047	0.006	-0.277778	0	1.04848	0
0.63	125	456.657	5.40854	0.255501	0.006	-0.162053	0	-1.74458	0	-95.8266	611.688	9.17136	0.78829	0.006	-0.278371	0	1.15957	0
0.64	109.477	381.234	7.2724	0.259459	0.006	-0.162901	0	-1.63292	0	-103.019	662.785	14.6851	0.792326	0.006	-0.278846	0	1.23643	0
0.65	93.4408	310.042	8.30172	0.263834	0.006	-0.163744	0	-1.49965	0	-108.689	711.331	20.0291	0.796178	0.006	-0.279209	0	1.28151	0
0.66	77.6303	244.687	8.63273	0.268832	0.006	-0.164604	0	-1.35234	0	-112.794	756.644	25.0412	0.79988	0.006	-0.279469	0	1.29829	0
0.67	62.6394	186.33	8.42999	0.274832	0.006	-0.165525	0	-1.20097	0	-115.359	798.105	29.5789	0.803476	0.006	-0.279632	0	1.29179	0
0.68	48.8999	135.666	7.85696	0.282569	0.006	-0.16658	0	-1.05696	0	-116.474	835.171	33.5272	0.807019	0.006	-0.279707	0	1.26921	0
0.69	36.6951	92.9346	7.05541	0.29362	0.006	-0.167913	0	-0.934085	0	-116.281	867.377	36.8037	0.810566	0.006	-0.279699	0	1.23859	0
0.7	26.1774	57.9678	6.13829	0.312027	0.006	-0.169872	0	-0.855153	0	-114.954	894.331	39.3733	0.814178	0.006	-0.279616	0	1.20765	0
0.71	17.3856	30.2749	5.19056	0.35223	0.006	-0.173663	0	-0.886769	0	-112.691	915.751	41.2603	0.817916	0.006	-0.279468	0	1.18279	0
0.72	0	0	0	0.405033	0	-0.175726	0	0	0	-109.692	931.504	42.5339	0.821832	0.006	-0.279262	0	1.16802	0
0.73	0	0	0	0.434763	0	-0.174017	0	0	0	-106.147	941.633	43.2818	0.825976	0.006	-0.279006	0	1.16469	0
0.74	0	0	0	0.464492	0	-0.172308	0	0	0	-102.225	946.366	43.5889	0.830385	0.006	-0.278705	0	1.17221	0
0.75	0	0	0	0.494222	0	-0.170599	0	0	0	-98.0644	946.099	43.5266	0.835092	0.006	-0.278363	0	1.18908	0
0.76	0	0	0	0.523951	0	-0.16889	0	0	0	-93.7793	941.373	43.1506	0.840116	0.006	-0.277984	0	1.21381	0
0.77	0	0	0	0.553681	0	-0.167181	0	0	0	-89.457	932.847	42.5058	0.845468	0.006	-0.27757	0	1.24542	0
0.78	0	0	0	0.58341	0	-0.165472	0	0	0	-85.1582	921.255	41.6313	0.851143	0.006	-0.277123	0	1.28397	0
0.79	0	0	0	0.61314	0	-0.163763	0	0	0	-80.92	907.364	40.5629	0.857124	0.006	-0.276647	0	1.33064	0
0.8	0	0	0	0.642869	0	-0.162054	0	0	0	-76.7625	891.921	39.3355	0.863378	0.006	-0.276144	0	1.38759	0
0.81	0	0	0	0.672598	0	-0.160345	0	0	0	-72.6925	875.616	37.9865	0.869858	0.006	-0.275619	0	1.45748	0
0.82	0	0	0	0.702328	0	-0.158636	0	0	0	-68.7046	859.054	36.5604	0.876506	0.006	-0.275075	0	1.54262	0
0.83	0	0	0	0.732057	0	-0.156927	0	0	0	-64.7814	842.752	35.1112	0.883252	0.006	-0.274517	0	1.64431	0
0.84	0	0	0	0.761787	0	-0.155218	0	0	0	-60.8949	827.146	33.6998	0.890018	0.006	-0.273953	0	1.76278	0
0.85	0	0	0	0.791516	0	-0.153509	0	0	0	-57.0067	812.6	32.3858	0.89672	0.006	-0.273388	0	1.89773	0
0.86	0	0	0	0.821246	0	-0.1518	0	0	0	-53.0654	799.421	31.2198	0.90327	0.006	-0.272828	0	2.04892	0
0.87	0	0	0	0.850975	0	-0.150091	0	0	0	-49.0076	787.869	30.2385	0.909576	0.006	-0.272278	0	2.21657	0
0.88	0	0	0	0.880705	0	-0.148382	0	0	0	-44.7605	778.169	29.4638	0.915552	0.006	-0.27174	0	2.40171	0
0.89	0	0	0	0.910434	0	-0.146673	0	0	0	-40.245	770.508	28.9072	0.921117	0.006	-0.271219	0	2.60597	0
0.9	0	0	0	0.940164	0	-0.144964	0	0	0	-35.3793	765.036	28.5776	0.926202	0.006	-0.270717	0	2.83072	0
0.91	0	0	0	0.969893	0	-0.143254	0	0	0	-30.0826	761.863	28.4863	0.930758	0.006	-0.270241	0	3.07605	0
0.92	0	0	0	0.999622	0	-0.141545	0	0	0	-24.2795	761.051	28.6494	0.934753	0.006	-0.269795	0	3.34007	0
